<svg width="360" height="342" viewBox="0 0 360 342" fill="none" xmlns="http://www.w3.org/2000/svg">
<path d="M162.096 49V111.582L138.223 112.775L138.04 68.8912L162.096 49Z" fill="white"/>
<path d="M197.125 49L197 111.582L221 111.63V68.8912L197.125 49Z" fill="white"/>
<path d="M235 82.5362V134.652L233.884 134.971C226.019 123.174 212.628 115.522 193.71 112.014C187.758 110.845 182.019 110.261 176.493 110.261C171.072 110.261 166.396 110.739 162.464 111.696C158.638 112.652 155.343 114.034 152.58 115.841C146.734 119.667 143.812 124.662 143.812 130.826C143.812 138.903 146.362 144.961 151.464 149C157.841 153.889 168.415 157.343 183.188 159.362C197.961 161.275 209.812 163.932 218.739 167.333C227.667 170.734 235 175.039 240.739 180.246C251.58 190.024 257 203.841 257 221.696C257 245.077 248.179 263.092 230.536 275.739C215.444 286.58 196.42 292 173.464 292C154.971 292 136.691 288.493 118.623 281.478C112.671 279.14 107.464 276.43 103 273.348L104.754 220.101L105.391 219.623C118.57 242.367 140.198 253.739 170.275 253.739C191.638 253.739 205.773 248.585 212.681 238.275C215.019 234.768 216.188 230.889 216.188 226.638C216.188 222.28 215.498 218.72 214.116 215.957C212.734 213.087 210.449 210.643 207.261 208.623C201.097 204.585 190.734 201.874 176.174 200.493C161.614 199.111 149.71 196.507 140.464 192.681C131.217 188.855 123.831 184.126 118.304 178.493C108.314 168.29 103.319 154.048 103.319 135.768C103.319 116.85 109.961 101.546 123.246 89.8551C136.744 77.9517 154.918 72 177.768 72C200.725 72 217.783 72.0145 235 82.5362Z" fill="white"/>
</svg>
