<svg width="360" height="342" viewBox="0 0 360 342" fill="none" xmlns="http://www.w3.org/2000/svg">
<path d="M232.714 48.5534L250 108.5L231.28 116.004C221.168 100.828 203.95 90.9848 179.627 86.4732C171.975 84.9693 164.596 84.2174 157.491 84.2174C150.522 84.2174 144.509 84.8326 139.453 86.063C134.534 87.2935 130.298 89.0708 126.745 91.3949C119.23 96.3167 115.472 102.742 115.472 110.672C115.472 121.062 118.752 128.855 125.311 134.05C133.509 140.339 147.106 144.782 166.099 147.38C185.093 149.841 200.329 153.258 211.807 157.633C223.286 162.008 232.714 167.545 240.093 174.244C254.031 186.822 261 204.595 261 227.563C261 257.64 249.658 280.814 226.975 297.083C207.571 311.028 183.112 318 153.596 318C129.82 318 106.317 313.488 83.087 304.465C75.4348 301.457 68.7391 297.971 63 294.007L65 230L83.5 218.5C100.444 247.757 110.826 268.783 149.497 268.783C176.963 268.783 195.137 262.152 204.019 248.891C207.025 244.379 208.528 239.389 208.528 233.92C208.528 228.315 207.64 223.735 205.863 220.18C204.087 216.489 201.149 213.345 197.05 210.747C189.124 205.552 175.801 202.066 157.081 200.288C138.36 198.511 123.056 195.162 111.168 190.24C99.2795 185.318 89.7826 179.234 82.677 171.988C69.8323 158.864 63.4099 140.544 63.4099 117.029C63.4099 92.6937 71.9503 73.0068 89.0311 57.9681C106.385 42.656 129.752 35 159.13 35C188.646 35 210.578 35.0187 232.714 48.5534Z" fill="#111827"/>
<path d="M263.714 35.5534V102.593L249.5 109C239.388 93.8246 234.95 77.9848 210.627 73.4732C202.975 71.9693 195.596 71.2174 188.491 71.2174C181.522 71.2174 175.509 71.8326 170.453 73.063C165.534 74.2935 161.298 76.0708 157.745 78.3949C150.23 83.3167 146.472 89.7423 146.472 97.6717C146.472 108.062 149.752 115.855 156.311 121.05C164.509 127.339 178.106 131.782 197.099 134.38C216.093 136.841 231.329 140.258 242.807 144.633C254.286 149.008 263.714 154.545 271.093 161.244C285.031 173.822 292 191.595 292 214.563C292 244.64 280.658 267.814 257.975 284.083C238.571 298.028 214.112 305 184.596 305C160.82 305 137.317 300.488 114.087 291.465C106.435 288.457 99.7391 284.971 94 281.007L84 218L97.0745 211.897C114.019 241.154 141.826 255.783 180.497 255.783C207.963 255.783 226.137 249.152 235.019 235.891C238.025 231.379 239.528 226.389 239.528 220.92C239.528 215.315 238.64 210.735 236.863 207.18C235.087 203.489 232.149 200.345 228.05 197.747C220.124 192.552 206.801 189.066 188.081 187.288C169.36 185.511 154.056 182.162 142.168 177.24C130.28 172.318 120.783 166.234 113.677 158.988C100.832 145.864 94.4099 127.544 94.4099 104.029C94.4099 79.6937 102.95 60.0068 120.031 44.9681C137.385 29.656 160.752 22 190.13 22C219.646 22 241.578 22.0187 263.714 35.5534Z" fill="#155DFC"/>
<path d="M250.714 41.5534V108.593L249.28 109.004C239.168 93.8283 221.95 83.9848 197.627 79.4732C189.975 77.9693 182.596 77.2174 175.491 77.2174C168.522 77.2174 162.509 77.8326 157.453 79.063C152.534 80.2935 148.298 82.0708 144.745 84.3949C137.23 89.3167 133.472 95.7423 133.472 103.672C133.472 114.062 136.752 121.855 143.311 127.05C151.509 133.339 165.106 137.782 184.099 140.38C203.093 142.841 218.329 146.258 229.807 150.633C241.286 155.008 250.714 160.545 258.093 167.244C272.031 179.822 279 197.595 279 220.563C279 250.64 267.658 273.814 244.975 290.083C225.571 304.028 201.112 311 171.596 311C147.82 311 124.317 306.488 101.087 297.465C93.4348 294.457 86.7391 290.971 81 287.007L83.2547 218.512L84.0745 217.897C101.019 247.154 128.826 261.783 167.497 261.783C194.963 261.783 213.137 255.152 222.019 241.891C225.025 237.379 226.528 232.389 226.528 226.92C226.528 221.315 225.64 216.735 223.863 213.18C222.087 209.489 219.149 206.345 215.05 203.747C207.124 198.552 193.801 195.066 175.081 193.288C156.36 191.511 141.056 188.162 129.168 183.24C117.28 178.318 107.783 172.234 100.677 164.988C87.8323 151.864 81.4099 133.544 81.4099 110.029C81.4099 85.6937 89.9503 66.0068 107.031 50.9681C124.385 35.656 147.752 28 177.13 28C206.646 28 228.578 28.0187 250.714 41.5534Z" fill="white"/>
</svg>
